<svg xmlns="http://www.w3.org/2000/svg" xmlns:xlink="http://www.w3.org/1999/xlink" width="500" zoomAndPan="magnify" viewBox="0 0 375 374.999991" height="500" preserveAspectRatio="xMidYMid meet" version="1.0"><defs><clipPath id="46311e088f"><path d="M 92.46875 177.875 L 105.21875 177.875 L 105.21875 182.375 L 92.46875 182.375 Z M 92.46875 177.875 " clip-rule="nonzero"/></clipPath><clipPath id="be73826984"><path d="M 142.878906 290.230469 L 147.378906 290.230469 L 147.378906 294 L 142.878906 294 Z M 142.878906 290.230469 " clip-rule="nonzero"/></clipPath><clipPath id="4e61df3aab"><path d="M 142.878906 292 L 147.378906 292 L 147.378906 296.230469 L 142.878906 296.230469 Z M 142.878906 292 " clip-rule="nonzero"/></clipPath><clipPath id="07ca0299e1"><path d="M 146 295 L 147 295 L 147 296.230469 L 146 296.230469 Z M 146 295 " clip-rule="nonzero"/></clipPath><clipPath id="6cac1670f5"><path d="M 143 295 L 145 295 L 145 296.230469 L 143 296.230469 Z M 143 295 " clip-rule="nonzero"/></clipPath><clipPath id="bd2214871d"><path d="M 127 39.105469 L 166 39.105469 L 166 78 L 127 78 Z M 127 39.105469 " clip-rule="nonzero"/></clipPath><clipPath id="ce59521225"><path d="M 209 39.105469 L 248 39.105469 L 248 78 L 209 78 Z M 209 39.105469 " clip-rule="nonzero"/></clipPath><clipPath id="6aa765cd6b"><path d="M 39.105469 127 L 78 127 L 78 166 L 39.105469 166 Z M 39.105469 127 " clip-rule="nonzero"/></clipPath></defs><g clip-path="url(#46311e088f)"><path stroke-linecap="butt" transform="matrix(0.0215422, 0, 0, 0.0221675, 92.41281, 177.383688)" fill-opacity="1" fill="#000000" fill-rule="nonzero" stroke-linejoin="miter" d="M 472.603394 22.692263 C 424.913679 23.044694 379.037262 36.965702 332.254195 42.604592 C 312.670586 45.071606 292.542988 45.600252 272.959379 43.485668 C 247.02923 40.490008 221.824399 32.736535 195.89425 29.388444 C 172.684047 26.216569 149.111184 23.044694 125.719651 22.868478 C 84.920465 22.692263 45.390587 34.674903 5.31672 41.194869 C 5.31672 52.296433 2.959434 66.569872 8.943315 74.323345 C 15.108525 82.253034 25.625648 89.654077 28.345594 100.579425 C 34.692134 126.306859 43.75862 151.505646 55.363722 175.823358 C 60.984943 187.629783 71.683396 195.735686 83.651157 201.374576 C 112.301252 214.943154 146.209908 217.057738 177.761279 212.82857 C 222.549718 206.661035 246.8479 174.942281 265.343531 138.64193 C 272.41539 123.839844 273.140708 106.74696 282.207194 93.354598 C 287.647086 85.248694 300.340166 88.773 309.406651 88.596785 C 318.291807 88.596785 325.907655 102.870224 328.808931 112.209635 C 338.600735 145.514326 355.101739 180.933601 387.922418 198.378916 C 437.06277 224.45878 514.127899 219.700967 545.860599 172.651482 C 558.372349 154.148876 561.817614 131.769533 567.982824 110.976128 C 571.790748 98.288626 575.236013 83.13411 588.835741 76.085498 C 594.275633 73.266054 590.467709 62.16449 591.193027 55.468309 C 592.099676 48.419697 593.731643 42.075946 583.03319 40.666223 C 564.35623 38.375425 546.223258 30.798167 527.002309 28.331152 C 508.869337 26.040354 491.099025 22.516048 472.603394 22.692263 Z M 157.452351 34.498688 C 171.052079 34.498688 184.470478 35.379764 197.707547 38.022994 C 276.041984 53.706156 277.673951 84.191402 245.397262 147.100264 C 219.104454 198.555131 164.52421 211.418848 109.762636 199.083777 C 84.376476 193.444888 67.150153 176.704434 58.990316 153.972661 C 50.467819 129.831165 43.93995 104.279946 45.390587 78.904943 C 47.385214 44.895391 88.00307 40.137578 117.015824 37.141917 C 130.434223 35.732195 144.033952 34.674903 157.452351 34.498688 Z M 443.59064 34.498688 C 457.190369 34.674903 470.790097 35.732195 484.027166 37.141917 C 513.22125 40.137578 553.839106 44.895391 555.652403 78.904943 C 557.284371 104.279946 550.756501 129.831165 542.052675 153.972661 C 533.892838 176.704434 516.666515 193.444888 491.280355 199.083777 C 436.518781 211.418848 382.119867 198.555131 355.827058 147.100264 C 323.550369 84.191402 325.001007 53.706156 403.516773 38.022994 C 416.572513 35.379764 429.990911 34.498688 443.59064 34.498688 Z M 443.59064 34.498688 " stroke="#000000" stroke-width="1" stroke-opacity="1" stroke-miterlimit="4"/></g><g clip-path="url(#be73826984)"><path fill="#ffffff" d="M 145.097656 290.445312 C 143.769531 290.445312 143.195312 291.355469 143.195312 291.820312 C 143.195312 292.722656 143.273438 292.929688 143.308594 292.976562 C 143.371094 292.917969 143.453125 292.558594 143.503906 292.339844 C 143.613281 291.871094 143.699219 291.503906 143.9375 291.503906 C 144.042969 291.503906 144.160156 291.539062 144.296875 291.578125 C 144.5 291.636719 144.75 291.714844 145.089844 291.714844 C 145.09375 291.714844 145.097656 291.714844 145.097656 291.714844 C 145.71875 291.710938 145.960938 291.664062 146.121094 291.636719 C 146.207031 291.621094 146.277344 291.609375 146.367188 291.609375 C 146.550781 291.609375 146.609375 291.886719 146.695312 292.308594 C 146.738281 292.519531 146.816406 292.902344 146.890625 292.976562 C 146.925781 292.925781 147.003906 292.710938 147.003906 291.820312 C 147.003906 291.355469 146.425781 290.445312 145.097656 290.445312 Z M 143.316406 292.988281 Z M 146.898438 293.195312 C 146.660156 293.195312 146.578125 292.804688 146.488281 292.347656 C 146.449219 292.164062 146.394531 291.890625 146.347656 291.820312 C 146.285156 291.820312 146.234375 291.832031 146.160156 291.84375 C 145.992188 291.875 145.738281 291.921875 145.109375 291.925781 C 145.105469 291.925781 145.101562 291.925781 145.097656 291.925781 C 144.722656 291.925781 144.441406 291.84375 144.234375 291.78125 C 144.113281 291.742188 144.015625 291.714844 143.9375 291.714844 C 143.859375 291.757812 143.761719 292.167969 143.710938 292.390625 C 143.605469 292.839844 143.523438 293.195312 143.300781 293.195312 C 143.066406 293.195312 142.984375 292.835938 142.984375 291.820312 C 142.984375 291.265625 143.605469 290.234375 145.097656 290.234375 C 146.59375 290.234375 147.214844 291.265625 147.214844 291.820312 C 147.214844 292.835938 147.132812 293.195312 146.898438 293.195312 " fill-opacity="1" fill-rule="nonzero"/></g><g clip-path="url(#4e61df3aab)"><path fill="#ffffff" d="M 145.097656 296.15625 C 144.550781 296.15625 144.453125 296.046875 144.191406 295.75 C 144.144531 295.703125 144.097656 295.644531 144.039062 295.582031 C 144.035156 295.578125 144.03125 295.574219 144.027344 295.574219 C 143.996094 295.527344 143.953125 295.480469 143.90625 295.429688 C 143.710938 295.222656 143.453125 294.945312 143.410156 294.3125 C 143.355469 294.324219 143.292969 294.316406 143.238281 294.289062 C 143.023438 294.191406 142.878906 293.835938 142.878906 293.40625 C 142.878906 293.164062 142.925781 293.023438 143.023438 292.960938 C 143.128906 292.894531 143.246094 292.949219 143.300781 292.976562 C 143.308594 292.980469 143.3125 292.984375 143.320312 292.984375 C 143.367188 292.992188 143.40625 293.035156 143.40625 293.089844 C 143.40625 293.148438 143.359375 293.195312 143.300781 293.195312 C 143.269531 293.195312 143.238281 293.179688 143.210938 293.167969 C 143.191406 293.160156 143.148438 293.136719 143.136719 293.140625 C 143.136719 293.140625 143.089844 293.179688 143.089844 293.40625 C 143.089844 293.773438 143.210938 294.042969 143.324219 294.097656 C 143.339844 294.105469 143.378906 294.121094 143.445312 294.066406 C 143.476562 294.039062 143.519531 294.03125 143.554688 294.050781 C 143.59375 294.066406 143.617188 294.105469 143.617188 294.148438 C 143.617188 294.8125 143.863281 295.074219 144.058594 295.285156 C 144.109375 295.339844 144.15625 295.390625 144.195312 295.445312 C 144.253906 295.507812 144.304688 295.5625 144.347656 295.609375 C 144.59375 295.886719 144.644531 295.945312 145.097656 295.945312 C 145.550781 295.945312 145.605469 295.886719 145.847656 295.609375 C 145.894531 295.5625 145.945312 295.507812 146 295.445312 C 146.039062 295.390625 146.089844 295.339844 146.140625 295.285156 C 146.335938 295.074219 146.578125 294.8125 146.578125 294.148438 C 146.578125 294.105469 146.601562 294.066406 146.640625 294.050781 C 146.679688 294.035156 146.722656 294.039062 146.753906 294.066406 C 146.820312 294.121094 146.855469 294.105469 146.871094 294.097656 C 146.988281 294.042969 147.109375 293.773438 147.109375 293.40625 C 147.109375 293.179688 147.0625 293.140625 147.0625 293.140625 C 147.050781 293.136719 147.007812 293.160156 146.988281 293.167969 C 146.957031 293.179688 146.929688 293.195312 146.898438 293.195312 C 146.839844 293.195312 146.789062 293.148438 146.789062 293.089844 C 146.789062 293.035156 146.828125 292.992188 146.878906 292.984375 C 146.882812 292.984375 146.890625 292.980469 146.898438 292.976562 C 146.953125 292.949219 147.066406 292.894531 147.175781 292.960938 C 147.273438 293.023438 147.320312 293.164062 147.320312 293.40625 C 147.320312 293.835938 147.175781 294.191406 146.960938 294.289062 C 146.902344 294.316406 146.84375 294.324219 146.785156 294.3125 C 146.746094 294.945312 146.488281 295.222656 146.292969 295.429688 C 146.242188 295.480469 146.199219 295.527344 146.167969 295.574219 C 146.167969 295.574219 146.164062 295.578125 146.160156 295.582031 C 146.101562 295.644531 146.050781 295.703125 146.007812 295.75 C 145.746094 296.046875 145.648438 296.15625 145.097656 296.15625 " fill-opacity="1" fill-rule="nonzero"/></g><g clip-path="url(#07ca0299e1)"><path fill="#ffffff" d="M 146.359375 296.15625 C 146.332031 296.15625 146.304688 296.144531 146.285156 296.125 C 146.003906 295.84375 146.015625 295.476562 146.015625 295.460938 C 146.015625 295.402344 146.0625 295.355469 146.125 295.359375 C 146.183594 295.359375 146.226562 295.410156 146.226562 295.46875 C 146.226562 295.472656 146.222656 295.761719 146.433594 295.976562 C 146.476562 296.015625 146.476562 296.082031 146.433594 296.125 C 146.414062 296.144531 146.386719 296.15625 146.359375 296.15625 " fill-opacity="1" fill-rule="nonzero"/></g><g clip-path="url(#6cac1670f5)"><path fill="#ffffff" d="M 143.839844 296.15625 C 143.8125 296.15625 143.785156 296.144531 143.765625 296.125 C 143.722656 296.082031 143.722656 296.015625 143.765625 295.976562 C 143.980469 295.757812 143.972656 295.46875 143.972656 295.46875 C 143.96875 295.410156 144.015625 295.359375 144.074219 295.359375 C 144.132812 295.355469 144.179688 295.402344 144.183594 295.460938 C 144.183594 295.476562 144.195312 295.84375 143.914062 296.125 C 143.894531 296.144531 143.867188 296.15625 143.839844 296.15625 " fill-opacity="1" fill-rule="nonzero"/></g><path fill="#ffffff" d="M 233.765625 265.332031 C 233.671875 265.332031 233.582031 265.332031 233.488281 265.332031 L 223.558594 265.332031 L 223.558594 278.101562 C 225.1875 277.652344 226.898438 277.410156 228.664062 277.414062 C 228.664062 277.414062 228.671875 277.414062 228.671875 277.414062 C 230.433594 277.414062 232.140625 277.652344 233.765625 278.101562 L 233.765625 265.332031 " fill-opacity="1" fill-rule="nonzero"/><path fill="#ffffff" d="M 228.675781 277.414062 C 228.671875 277.414062 228.667969 277.414062 228.664062 277.414062 C 226.898438 277.410156 225.1875 277.652344 223.5625 278.101562 C 220.328125 278.996094 217.433594 280.71875 215.144531 283.011719 C 211.691406 286.457031 209.542969 291.269531 209.546875 296.535156 L 219.75 296.535156 C 219.753906 294.054688 220.738281 291.859375 222.359375 290.230469 C 223.992188 288.609375 226.1875 287.621094 228.664062 287.617188 C 231.140625 287.621094 233.335938 288.609375 234.964844 290.230469 C 236.585938 291.859375 237.574219 294.054688 237.578125 296.535156 C 237.574219 299.011719 236.585938 301.207031 234.964844 302.835938 C 233.335938 304.457031 231.140625 305.445312 228.664062 305.445312 C 226.1875 305.445312 223.988281 304.457031 222.359375 302.835938 C 220.738281 301.207031 219.753906 299.011719 219.75 296.535156 L 209.542969 296.535156 C 209.542969 301.796875 211.691406 306.609375 215.144531 310.050781 C 218.585938 313.5 223.394531 315.652344 228.652344 315.652344 C 228.65625 315.652344 228.660156 315.652344 228.664062 315.652344 C 233.925781 315.65625 238.738281 313.503906 242.183594 310.050781 C 245.636719 306.609375 247.785156 301.796875 247.78125 296.535156 C 247.785156 291.269531 245.636719 286.457031 242.183594 283.015625 C 239.890625 280.71875 236.996094 278.996094 233.765625 278.105469 C 232.140625 277.652344 230.433594 277.414062 228.675781 277.414062 " fill-opacity="1" fill-rule="nonzero"/><path fill="#ffffff" d="M 141.234375 265.332031 L 141.234375 298.34375 C 142.859375 297.894531 144.574219 297.652344 146.335938 297.65625 C 146.339844 297.65625 146.34375 297.65625 146.347656 297.65625 C 148.105469 297.65625 149.8125 297.894531 151.4375 298.34375 L 151.4375 265.332031 L 141.511719 265.332031 C 141.507812 265.332031 141.507812 265.332031 141.503906 265.332031 C 141.414062 265.335938 141.324219 265.332031 141.234375 265.332031 " fill-opacity="1" fill-rule="nonzero"/><path fill="#ffffff" d="M 146.347656 297.65625 C 146.34375 297.65625 146.339844 297.65625 146.335938 297.65625 C 144.570312 297.652344 142.859375 297.894531 141.234375 298.34375 C 138 299.238281 135.105469 300.960938 132.816406 303.253906 C 129.363281 306.699219 127.214844 311.511719 127.214844 316.777344 L 137.421875 316.777344 C 137.425781 314.296875 138.414062 312.101562 140.035156 310.472656 C 141.664062 308.851562 143.859375 307.863281 146.335938 307.859375 C 148.816406 307.863281 151.011719 308.851562 152.640625 310.472656 C 154.261719 312.101562 155.25 314.296875 155.25 316.777344 C 155.25 319.25 154.261719 321.449219 152.640625 323.074219 C 151.011719 324.699219 148.816406 325.6875 146.335938 325.6875 C 143.859375 325.6875 141.664062 324.699219 140.035156 323.074219 C 138.410156 321.449219 137.425781 319.25 137.421875 316.777344 L 127.21875 316.777344 C 127.214844 322.039062 129.363281 326.851562 132.816406 330.292969 C 136.257812 333.742188 141.066406 335.894531 146.324219 335.894531 C 146.328125 335.894531 146.332031 335.894531 146.335938 335.894531 C 151.597656 335.894531 156.410156 333.746094 159.855469 330.292969 C 163.308594 326.851562 165.457031 322.039062 165.457031 316.777344 C 165.457031 311.511719 163.308594 306.699219 159.855469 303.253906 C 157.566406 300.957031 154.667969 299.238281 151.4375 298.34375 C 149.8125 297.894531 148.105469 297.65625 146.347656 297.65625 " fill-opacity="1" fill-rule="nonzero"/><path fill="#ffffff" d="M 192.601562 265.335938 L 182.394531 265.335938 L 182.394531 292.121094 C 184.023438 291.671875 185.734375 291.429688 187.5 291.429688 C 187.503906 291.429688 187.503906 291.429688 187.507812 291.429688 C 189.269531 291.429688 190.976562 291.671875 192.601562 292.121094 L 192.601562 265.335938 " fill-opacity="1" fill-rule="nonzero"/><path fill="#ffffff" d="M 187.507812 291.429688 C 187.507812 291.429688 187.503906 291.429688 187.5 291.429688 C 185.734375 291.429688 184.023438 291.671875 182.394531 292.121094 C 179.164062 293.015625 176.269531 294.734375 173.980469 297.03125 C 170.527344 300.472656 168.378906 305.285156 168.378906 310.546875 L 178.585938 310.546875 C 178.585938 308.074219 179.574219 305.875 181.195312 304.246094 C 182.824219 302.625 185.023438 301.636719 187.5 301.636719 C 189.976562 301.636719 192.171875 302.625 193.800781 304.246094 C 195.421875 305.875 196.410156 308.074219 196.414062 310.546875 C 196.410156 313.027344 195.421875 315.222656 193.800781 316.851562 C 192.171875 318.472656 189.976562 319.460938 187.5 319.464844 C 185.019531 319.460938 182.824219 318.472656 181.195312 316.851562 C 179.574219 315.222656 178.585938 313.027344 178.585938 310.546875 L 168.378906 310.546875 C 168.378906 315.8125 170.527344 320.625 173.980469 324.070312 C 177.421875 327.519531 182.230469 329.667969 187.488281 329.667969 C 187.492188 329.667969 187.496094 329.667969 187.5 329.667969 C 192.761719 329.671875 197.574219 327.519531 201.015625 324.070312 C 204.46875 320.625 206.621094 315.8125 206.617188 310.546875 C 206.621094 305.285156 204.46875 300.472656 201.015625 297.03125 C 198.726562 294.734375 195.832031 293.015625 192.601562 292.121094 C 190.976562 291.671875 189.269531 291.429688 187.507812 291.429688 " fill-opacity="1" fill-rule="nonzero"/><path fill="#ffffff" d="M 141.234375 76.652344 L 141.234375 109.664062 C 141.328125 109.664062 141.417969 109.664062 141.511719 109.664062 L 151.4375 109.664062 L 151.4375 76.652344 C 149.8125 77.105469 148.097656 77.34375 146.335938 77.34375 C 146.332031 77.34375 146.328125 77.34375 146.324219 77.34375 C 144.566406 77.34375 142.855469 77.101562 141.234375 76.652344 " fill-opacity="1" fill-rule="nonzero"/><g clip-path="url(#bd2214871d)"><path fill="#ffffff" d="M 146.347656 39.105469 C 146.34375 39.105469 146.339844 39.105469 146.335938 39.105469 C 141.070312 39.101562 136.257812 41.253906 132.816406 44.703125 C 129.363281 48.148438 127.214844 52.960938 127.214844 58.222656 C 127.214844 63.488281 129.363281 68.300781 132.816406 71.746094 C 135.105469 74.039062 138 75.761719 141.234375 76.65625 C 142.855469 77.105469 144.566406 77.34375 146.328125 77.34375 C 146.328125 77.34375 146.332031 77.34375 146.335938 77.34375 C 148.101562 77.34375 149.8125 77.105469 151.441406 76.65625 C 154.671875 75.761719 157.566406 74.039062 159.855469 71.746094 C 163.308594 68.300781 165.457031 63.488281 165.457031 58.222656 L 155.25 58.222656 C 155.246094 60.703125 154.257812 62.898438 152.636719 64.527344 C 151.007812 66.148438 148.8125 67.136719 146.335938 67.136719 C 143.859375 67.136719 141.664062 66.148438 140.03125 64.527344 C 138.410156 62.898438 137.425781 60.703125 137.421875 58.222656 C 137.421875 55.746094 138.410156 53.550781 140.03125 51.921875 C 141.664062 50.300781 143.859375 49.3125 146.335938 49.3125 C 148.8125 49.3125 151.007812 50.300781 152.636719 51.921875 C 154.257812 53.550781 155.246094 55.746094 155.25 58.222656 L 165.453125 58.222656 C 165.457031 52.960938 163.304688 48.148438 159.855469 44.703125 C 156.414062 41.257812 151.605469 39.105469 146.347656 39.105469 " fill-opacity="1" fill-rule="nonzero"/></g><path fill="#ffffff" d="M 223.558594 76.652344 L 223.558594 109.664062 L 233.488281 109.664062 C 233.492188 109.664062 233.492188 109.664062 233.496094 109.664062 C 233.585938 109.664062 233.675781 109.664062 233.765625 109.664062 L 233.765625 76.652344 C 232.140625 77.105469 230.425781 77.34375 228.664062 77.34375 C 228.660156 77.34375 228.65625 77.34375 228.652344 77.34375 C 226.894531 77.34375 225.183594 77.101562 223.558594 76.652344 " fill-opacity="1" fill-rule="nonzero"/><g clip-path="url(#ce59521225)"><path fill="#ffffff" d="M 228.675781 39.105469 C 228.671875 39.105469 228.667969 39.105469 228.664062 39.105469 C 223.398438 39.101562 218.585938 41.253906 215.144531 44.703125 C 211.691406 48.148438 209.542969 52.960938 209.542969 58.222656 C 209.542969 63.488281 211.691406 68.300781 215.144531 71.746094 C 217.433594 74.039062 220.328125 75.761719 223.558594 76.65625 C 225.183594 77.105469 226.894531 77.34375 228.652344 77.34375 C 228.65625 77.34375 228.660156 77.34375 228.664062 77.34375 C 230.425781 77.34375 232.140625 77.105469 233.765625 76.65625 C 236.996094 75.761719 239.890625 74.039062 242.183594 71.746094 C 245.636719 68.300781 247.785156 63.488281 247.78125 58.222656 L 237.578125 58.222656 C 237.574219 60.703125 236.585938 62.898438 234.964844 64.527344 C 233.335938 66.148438 231.140625 67.136719 228.664062 67.136719 C 226.1875 67.136719 223.988281 66.148438 222.359375 64.527344 C 220.738281 62.898438 219.753906 60.703125 219.75 58.222656 C 219.753906 55.746094 220.738281 53.550781 222.359375 51.921875 C 223.992188 50.300781 226.1875 49.3125 228.664062 49.3125 C 231.140625 49.3125 233.335938 50.300781 234.964844 51.921875 C 236.585938 53.550781 237.574219 55.746094 237.578125 58.222656 L 247.78125 58.222656 C 247.785156 52.960938 245.636719 48.148438 242.183594 44.703125 C 238.742188 41.257812 233.933594 39.105469 228.675781 39.105469 " fill-opacity="1" fill-rule="nonzero"/></g><path fill="#ffffff" d="M 192.601562 96.894531 C 190.972656 97.347656 189.261719 97.585938 187.5 97.585938 C 187.496094 97.585938 187.492188 97.585938 187.488281 97.585938 C 185.730469 97.585938 184.019531 97.347656 182.398438 96.898438 L 182.398438 109.664062 L 192.601562 109.664062 L 192.601562 96.894531 " fill-opacity="1" fill-rule="nonzero"/><path fill="#ffffff" d="M 187.507812 59.347656 C 187.507812 59.347656 187.503906 59.347656 187.5 59.347656 C 182.234375 59.34375 177.421875 61.496094 173.980469 64.945312 C 170.527344 68.390625 168.378906 73.203125 168.378906 78.46875 C 168.378906 83.730469 170.527344 88.542969 173.980469 91.988281 C 176.269531 94.28125 179.167969 96.003906 182.394531 96.898438 C 184.019531 97.347656 185.730469 97.585938 187.488281 97.585938 C 187.492188 97.585938 187.496094 97.585938 187.5 97.585938 C 189.261719 97.585938 190.972656 97.347656 192.601562 96.894531 C 195.832031 96 198.726562 94.28125 201.015625 91.984375 C 204.46875 88.542969 206.621094 83.730469 206.617188 78.464844 L 196.410156 78.464844 C 196.410156 80.945312 195.421875 83.140625 193.800781 84.769531 C 192.171875 86.390625 189.976562 87.375 187.496094 87.378906 C 185.019531 87.375 182.824219 86.390625 181.195312 84.769531 C 179.574219 83.140625 178.585938 80.945312 178.585938 78.464844 C 178.585938 75.988281 179.574219 73.792969 181.195312 72.164062 C 182.824219 70.542969 185.019531 69.554688 187.496094 69.550781 C 189.976562 69.554688 192.171875 70.542969 193.800781 72.164062 C 195.421875 73.792969 196.40625 75.988281 196.410156 78.464844 L 206.617188 78.464844 C 206.621094 73.203125 204.46875 68.390625 201.015625 64.945312 C 197.578125 61.5 192.769531 59.347656 187.507812 59.347656 " fill-opacity="1" fill-rule="nonzero"/><path fill="#ffffff" d="M 109.664062 223.5625 L 96.894531 223.5625 C 97.34375 225.1875 97.585938 226.898438 97.585938 228.664062 C 97.585938 230.425781 97.34375 232.140625 96.894531 233.765625 L 109.664062 233.765625 C 109.664062 233.671875 109.664062 233.582031 109.664062 233.488281 L 109.664062 223.5625 " fill-opacity="1" fill-rule="nonzero"/><path fill="#ffffff" d="M 78.464844 237.578125 C 75.988281 237.574219 73.792969 236.585938 72.164062 234.964844 C 70.542969 233.339844 69.554688 231.140625 69.554688 228.664062 C 69.554688 226.1875 70.542969 223.988281 72.164062 222.359375 C 73.792969 220.738281 75.988281 219.753906 78.464844 219.75 C 80.945312 219.753906 83.140625 220.738281 84.769531 222.359375 C 86.390625 223.992188 87.375 226.1875 87.378906 228.664062 C 87.375 231.140625 86.390625 233.339844 84.769531 234.964844 C 83.140625 236.585938 80.945312 237.574219 78.464844 237.578125 M 78.476562 209.542969 C 78.472656 209.542969 78.46875 209.542969 78.464844 209.542969 C 73.203125 209.542969 68.390625 211.691406 64.945312 215.144531 C 61.496094 218.585938 59.34375 223.398438 59.347656 228.664062 C 59.347656 233.925781 61.496094 238.738281 64.945312 242.183594 C 68.390625 245.632812 73.199219 247.785156 78.460938 247.785156 C 78.464844 247.785156 78.464844 247.785156 78.464844 247.785156 C 83.730469 247.785156 88.542969 245.636719 91.984375 242.183594 C 94.28125 239.890625 96.003906 236.996094 96.894531 233.765625 C 97.347656 232.140625 97.585938 230.425781 97.585938 228.664062 C 97.585938 226.898438 97.347656 225.1875 96.894531 223.5625 C 96.003906 220.328125 94.28125 217.433594 91.988281 215.144531 C 88.542969 211.695312 83.738281 209.542969 78.476562 209.542969 " fill-opacity="1" fill-rule="nonzero"/><path fill="#ffffff" d="M 109.664062 141.234375 L 76.652344 141.234375 C 77.101562 142.859375 77.34375 144.574219 77.34375 146.335938 C 77.34375 148.097656 77.101562 149.8125 76.652344 151.4375 L 109.664062 151.4375 L 109.664062 141.511719 C 109.664062 141.417969 109.664062 141.324219 109.664062 141.234375 " fill-opacity="1" fill-rule="nonzero"/><g clip-path="url(#6aa765cd6b)"><path fill="#ffffff" d="M 58.222656 155.25 C 55.746094 155.246094 53.550781 154.257812 51.921875 152.636719 C 50.300781 151.011719 49.3125 148.8125 49.3125 146.335938 C 49.3125 143.859375 50.300781 141.660156 51.921875 140.035156 C 53.550781 138.414062 55.746094 137.425781 58.222656 137.421875 C 60.703125 137.425781 62.898438 138.414062 64.527344 140.035156 C 66.148438 141.660156 67.132812 143.859375 67.136719 146.335938 C 67.136719 148.8125 66.148438 151.011719 64.527344 152.636719 C 62.898438 154.257812 60.703125 155.246094 58.222656 155.25 M 58.234375 127.214844 C 58.230469 127.214844 58.226562 127.214844 58.222656 127.214844 C 52.960938 127.214844 48.148438 129.363281 44.703125 132.816406 C 41.253906 136.261719 39.101562 141.074219 39.105469 146.335938 C 39.105469 151.601562 41.253906 156.414062 44.703125 159.855469 C 48.144531 163.304688 52.957031 165.457031 58.214844 165.457031 C 58.214844 165.457031 58.21875 165.457031 58.222656 165.457031 C 63.488281 165.457031 68.300781 163.308594 71.742188 159.855469 C 74.039062 157.566406 75.757812 154.671875 76.652344 151.441406 C 77.105469 149.8125 77.34375 148.101562 77.34375 146.335938 C 77.34375 144.574219 77.105469 142.863281 76.652344 141.234375 C 75.757812 138.003906 74.039062 135.109375 71.742188 132.820312 C 68.300781 129.367188 63.492188 127.214844 58.234375 127.214844 " fill-opacity="1" fill-rule="nonzero"/></g><path fill="#ffffff" d="M 109.664062 182.398438 L 82.878906 182.398438 C 83.328125 184.023438 83.570312 185.738281 83.570312 187.5 C 83.570312 189.261719 83.332031 190.976562 82.878906 192.601562 L 109.664062 192.601562 L 109.664062 182.398438 " fill-opacity="1" fill-rule="nonzero"/><path fill="#ffffff" d="M 64.449219 196.414062 C 61.972656 196.410156 59.777344 195.425781 58.148438 193.800781 C 56.527344 192.171875 55.539062 189.976562 55.535156 187.5 C 55.539062 185.023438 56.527344 182.828125 58.148438 181.195312 C 59.777344 179.578125 61.972656 178.589844 64.449219 178.585938 C 66.929688 178.585938 69.125 179.574219 70.753906 181.195312 C 72.375 182.828125 73.359375 185.023438 73.363281 187.5 C 73.359375 189.976562 72.375 192.171875 70.753906 193.800781 C 69.125 195.425781 66.929688 196.410156 64.449219 196.414062 M 64.457031 168.378906 C 64.453125 168.378906 64.453125 168.378906 64.449219 168.378906 C 59.1875 168.378906 54.375 170.527344 50.929688 173.980469 C 47.476562 177.425781 45.328125 182.238281 45.332031 187.5 C 45.328125 192.761719 47.476562 197.574219 50.929688 201.019531 C 54.371094 204.46875 59.179688 206.617188 64.4375 206.617188 C 64.441406 206.617188 64.445312 206.617188 64.449219 206.617188 C 69.714844 206.621094 74.527344 204.472656 77.96875 201.019531 C 80.265625 198.730469 81.984375 195.832031 82.878906 192.601562 C 83.328125 190.976562 83.570312 189.265625 83.570312 187.5 C 83.570312 185.738281 83.332031 184.023438 82.878906 182.398438 C 81.984375 179.167969 80.265625 176.273438 77.96875 173.984375 C 74.527344 170.53125 69.71875 168.378906 64.457031 168.378906 " fill-opacity="1" fill-rule="nonzero"/><path fill="#ffffff" d="M 298.34375 141.234375 L 265.332031 141.234375 C 265.332031 141.324219 265.332031 141.417969 265.332031 141.511719 L 265.332031 151.441406 L 298.34375 151.441406 C 297.894531 149.8125 297.652344 148.101562 297.652344 146.335938 C 297.652344 144.574219 297.894531 142.859375 298.34375 141.234375 " fill-opacity="1" fill-rule="nonzero"/><path fill="#ffffff" d="M 316.773438 155.25 C 314.296875 155.246094 312.101562 154.257812 310.472656 152.636719 C 308.851562 151.011719 307.863281 148.8125 307.859375 146.335938 C 307.863281 143.859375 308.851562 141.660156 310.472656 140.03125 C 312.101562 138.414062 314.296875 137.425781 316.773438 137.421875 C 319.253906 137.425781 321.449219 138.414062 323.074219 140.03125 C 324.695312 141.664062 325.683594 143.859375 325.6875 146.335938 C 325.683594 148.8125 324.699219 151.011719 323.074219 152.636719 C 321.449219 154.257812 319.253906 155.246094 316.773438 155.25 M 316.785156 127.214844 C 316.78125 127.214844 316.777344 127.214844 316.773438 127.214844 C 311.511719 127.214844 306.699219 129.363281 303.253906 132.816406 C 300.960938 135.105469 299.238281 138.003906 298.34375 141.234375 C 297.894531 142.859375 297.652344 144.570312 297.652344 146.335938 C 297.652344 148.097656 297.894531 149.8125 298.34375 151.4375 C 299.238281 154.667969 300.960938 157.5625 303.253906 159.855469 C 306.695312 163.304688 311.503906 165.453125 316.765625 165.453125 C 316.765625 165.453125 316.769531 165.453125 316.773438 165.453125 C 322.039062 165.457031 326.851562 163.304688 330.292969 159.855469 C 333.746094 156.410156 335.894531 151.597656 335.894531 146.335938 C 335.894531 141.070312 333.746094 136.257812 330.292969 132.816406 C 326.851562 129.367188 322.042969 127.214844 316.785156 127.214844 " fill-opacity="1" fill-rule="nonzero"/><path fill="#ffffff" d="M 298.34375 223.5625 L 265.332031 223.5625 L 265.332031 233.488281 C 265.332031 233.582031 265.332031 233.671875 265.332031 233.765625 L 298.34375 233.765625 C 297.894531 232.140625 297.652344 230.425781 297.65625 228.664062 C 297.652344 226.898438 297.894531 225.1875 298.34375 223.5625 " fill-opacity="1" fill-rule="nonzero"/><path fill="#ffffff" d="M 316.773438 237.578125 C 314.296875 237.574219 312.101562 236.585938 310.472656 234.964844 C 308.851562 233.335938 307.863281 231.140625 307.859375 228.664062 C 307.863281 226.1875 308.851562 223.988281 310.472656 222.359375 C 312.101562 220.738281 314.296875 219.753906 316.773438 219.75 C 319.253906 219.753906 321.449219 220.738281 323.074219 222.359375 C 324.695312 223.992188 325.683594 226.1875 325.6875 228.664062 C 325.683594 231.140625 324.699219 233.335938 323.074219 234.964844 C 321.449219 236.585938 319.253906 237.574219 316.773438 237.578125 M 316.785156 209.542969 C 316.78125 209.542969 316.777344 209.542969 316.773438 209.542969 C 311.511719 209.542969 306.699219 211.691406 303.253906 215.144531 C 300.960938 217.433594 299.238281 220.328125 298.34375 223.558594 C 297.894531 225.1875 297.652344 226.898438 297.652344 228.664062 C 297.652344 230.425781 297.894531 232.136719 298.34375 233.765625 C 299.238281 236.996094 300.957031 239.890625 303.253906 242.179688 C 306.695312 245.632812 311.507812 247.78125 316.769531 247.78125 C 316.769531 247.78125 316.769531 247.78125 316.773438 247.78125 C 322.039062 247.78125 326.847656 245.632812 330.292969 242.179688 C 333.746094 238.738281 335.894531 233.925781 335.894531 228.664062 C 335.894531 223.398438 333.746094 218.585938 330.292969 215.144531 C 326.851562 211.695312 322.042969 209.542969 316.785156 209.542969 " fill-opacity="1" fill-rule="nonzero"/><path fill="#ffffff" d="M 278.101562 182.398438 L 265.335938 182.398438 L 265.335938 192.601562 L 278.101562 192.601562 C 277.652344 190.976562 277.410156 189.265625 277.414062 187.5 C 277.410156 185.738281 277.652344 184.023438 278.101562 182.398438 " fill-opacity="1" fill-rule="nonzero"/><path fill="#ffffff" d="M 296.53125 196.414062 C 294.054688 196.410156 291.859375 195.425781 290.226562 193.800781 C 288.605469 192.171875 287.621094 189.976562 287.617188 187.5 C 287.621094 185.019531 288.605469 182.824219 290.226562 181.195312 C 291.859375 179.578125 294.054688 178.589844 296.53125 178.585938 C 299.007812 178.589844 301.207031 179.574219 302.832031 181.195312 C 304.457031 182.824219 305.441406 185.019531 305.445312 187.5 C 305.441406 189.976562 304.457031 192.171875 302.832031 193.800781 C 301.207031 195.425781 299.007812 196.410156 296.53125 196.414062 M 296.539062 168.378906 C 296.535156 168.378906 296.535156 168.378906 296.53125 168.378906 C 291.269531 168.378906 286.457031 170.527344 283.015625 173.980469 C 280.71875 176.273438 278.996094 179.167969 278.101562 182.398438 C 277.652344 184.023438 277.410156 185.738281 277.414062 187.5 C 277.410156 189.265625 277.652344 190.976562 278.101562 192.601562 C 278.996094 195.835938 280.71875 198.730469 283.015625 201.019531 C 286.457031 204.46875 291.261719 206.617188 296.523438 206.617188 C 296.523438 206.617188 296.527344 206.617188 296.53125 206.617188 C 301.796875 206.621094 306.609375 204.472656 310.050781 201.019531 C 313.503906 197.574219 315.65625 192.761719 315.652344 187.5 C 315.652344 182.238281 313.503906 177.425781 310.050781 173.980469 C 306.609375 170.53125 301.796875 168.378906 296.539062 168.378906 " fill-opacity="1" fill-rule="nonzero"/><path fill="#ffffff" d="M 141.234375 109.664062 C 132.5625 109.738281 124.675781 113.296875 118.992188 118.992188 C 113.296875 124.679688 109.738281 132.566406 109.664062 141.234375 L 119.871094 141.234375 L 119.871094 151.441406 L 109.664062 151.441406 L 109.664062 182.398438 L 119.871094 182.398438 L 119.871094 192.605469 L 109.664062 192.605469 L 109.664062 223.5625 L 119.871094 223.5625 L 119.871094 233.769531 L 109.664062 233.769531 C 109.738281 242.4375 113.296875 250.324219 118.992188 256.007812 C 124.675781 261.703125 132.5625 265.261719 141.234375 265.335938 L 141.234375 255.132812 L 151.4375 255.132812 L 151.4375 265.339844 L 182.398438 265.339844 L 182.398438 255.132812 L 192.601562 255.132812 L 192.601562 265.339844 L 223.5625 265.339844 L 223.5625 255.132812 L 233.765625 255.132812 L 233.765625 265.335938 C 242.433594 265.265625 250.320312 261.703125 256.007812 256.007812 C 261.703125 250.324219 265.261719 242.4375 265.335938 233.769531 L 255.128906 233.769531 L 255.128906 233.488281 C 255.128906 239.480469 252.714844 244.859375 248.792969 248.792969 C 244.859375 252.71875 239.480469 255.128906 233.488281 255.132812 L 141.515625 255.132812 C 135.519531 255.128906 130.140625 252.71875 126.210938 248.792969 C 122.285156 244.859375 119.875 239.480469 119.871094 233.488281 L 119.871094 141.515625 C 119.875 135.519531 122.285156 130.144531 126.210938 126.210938 C 130.144531 122.285156 135.519531 119.875 141.515625 119.871094 L 141.234375 119.871094 L 141.234375 109.664062 M 233.765625 109.664062 L 233.765625 119.871094 L 233.488281 119.871094 C 239.480469 119.871094 244.859375 122.285156 248.792969 126.207031 C 252.714844 130.140625 255.128906 135.519531 255.128906 141.511719 L 255.128906 141.234375 L 265.332031 141.234375 C 265.261719 132.566406 261.699219 124.679688 256.007812 118.992188 C 250.320312 113.296875 242.433594 109.738281 233.765625 109.664062 M 182.398438 109.664062 L 151.4375 109.664062 L 151.4375 119.871094 L 182.398438 119.871094 L 182.398438 109.664062 M 223.558594 109.664062 L 192.601562 109.664062 L 192.601562 119.871094 L 223.558594 119.871094 L 223.558594 109.664062 " fill-opacity="1" fill-rule="nonzero"/><path fill="#ffffff" d="M 233.765625 255.128906 L 223.558594 255.128906 L 223.558594 265.335938 L 233.488281 265.335938 C 233.582031 265.335938 233.671875 265.335938 233.765625 265.332031 L 233.765625 255.128906 " fill-opacity="1" fill-rule="nonzero"/><path fill="#ffffff" d="M 151.4375 255.128906 L 141.234375 255.128906 L 141.234375 265.332031 C 141.324219 265.332031 141.414062 265.332031 141.503906 265.332031 C 141.507812 265.332031 141.507812 265.332031 141.511719 265.332031 L 151.4375 265.332031 L 151.4375 255.128906 " fill-opacity="1" fill-rule="nonzero"/><path fill="#ffffff" d="M 192.601562 255.128906 L 182.398438 255.128906 L 182.398438 265.335938 L 192.601562 265.335938 L 192.601562 255.128906 " fill-opacity="1" fill-rule="nonzero"/><path fill="#ffffff" d="M 151.4375 109.664062 L 141.511719 109.664062 C 141.417969 109.664062 141.328125 109.664062 141.234375 109.664062 L 141.234375 119.871094 L 151.4375 119.871094 L 151.4375 109.664062 " fill-opacity="1" fill-rule="nonzero"/><path fill="#ffffff" d="M 233.496094 109.664062 C 233.492188 109.664062 233.492188 109.664062 233.484375 109.664062 L 223.558594 109.664062 L 223.558594 119.871094 L 233.765625 119.871094 L 233.765625 109.664062 C 233.675781 109.664062 233.585938 109.664062 233.496094 109.664062 " fill-opacity="1" fill-rule="nonzero"/><path fill="#ffffff" d="M 192.601562 109.664062 L 182.398438 109.664062 L 182.398438 119.871094 L 192.601562 119.871094 L 192.601562 109.664062 " fill-opacity="1" fill-rule="nonzero"/><path fill="#ffffff" d="M 265.332031 192.601562 L 255.128906 192.601562 L 255.128906 223.5625 L 265.332031 223.5625 L 265.332031 192.601562 M 265.332031 151.441406 L 255.128906 151.441406 L 255.128906 182.398438 L 265.332031 182.398438 L 265.332031 151.441406 " fill-opacity="1" fill-rule="nonzero"/><path fill="#ffffff" d="M 119.871094 223.5625 L 109.664062 223.5625 L 109.664062 233.488281 C 109.664062 233.582031 109.664062 233.671875 109.664062 233.765625 L 119.871094 233.765625 L 119.871094 223.5625 " fill-opacity="1" fill-rule="nonzero"/><path fill="#ffffff" d="M 119.871094 141.234375 L 109.664062 141.234375 C 109.664062 141.324219 109.664062 141.417969 109.664062 141.511719 L 109.664062 151.441406 L 119.871094 151.441406 L 119.871094 141.234375 " fill-opacity="1" fill-rule="nonzero"/><path fill="#ffffff" d="M 119.871094 182.398438 L 109.664062 182.398438 L 109.664062 192.601562 L 119.871094 192.601562 L 119.871094 182.398438 " fill-opacity="1" fill-rule="nonzero"/><path fill="#ffffff" d="M 265.332031 141.234375 L 255.128906 141.234375 L 255.128906 151.441406 L 265.332031 151.441406 L 265.332031 141.511719 C 265.335938 141.417969 265.332031 141.324219 265.332031 141.234375 " fill-opacity="1" fill-rule="nonzero"/><path fill="#ffffff" d="M 265.332031 233.488281 L 255.128906 233.488281 L 255.128906 233.765625 L 265.332031 233.765625 C 265.332031 233.671875 265.335938 233.582031 265.332031 233.488281 M 265.332031 223.5625 L 255.128906 223.5625 L 255.128906 233.488281 L 265.332031 233.488281 L 265.332031 223.5625 " fill-opacity="1" fill-rule="nonzero"/><path fill="#ffffff" d="M 265.332031 182.398438 L 255.128906 182.398438 L 255.128906 192.601562 L 265.332031 192.601562 L 265.332031 182.398438 " fill-opacity="1" fill-rule="nonzero"/><path fill="#ffffff" d="M 217.476562 135.003906 C 217.472656 135.003906 217.46875 135.003906 217.464844 135.003906 L 157.535156 135.003906 C 151.328125 135.003906 145.664062 137.535156 141.601562 141.605469 C 137.535156 145.664062 135.003906 151.328125 135.003906 157.535156 L 135.003906 217.464844 C 135.003906 223.671875 137.535156 229.335938 141.601562 233.394531 C 145.660156 237.464844 151.324219 239.996094 157.527344 239.996094 C 157.53125 239.996094 157.53125 239.996094 157.535156 239.996094 L 217.464844 239.996094 C 223.671875 239.996094 229.335938 237.464844 233.398438 233.394531 C 237.464844 229.335938 239.996094 223.671875 239.996094 217.464844 L 229.789062 217.464844 C 229.789062 220.886719 228.417969 223.933594 226.179688 226.179688 C 223.933594 228.417969 220.886719 229.789062 217.464844 229.789062 L 157.535156 229.789062 C 154.117188 229.789062 151.066406 228.417969 148.820312 226.179688 C 146.582031 223.933594 145.214844 220.882812 145.210938 217.464844 L 145.210938 157.535156 C 145.210938 154.113281 146.582031 151.066406 148.820312 148.820312 C 151.066406 146.582031 154.117188 145.210938 157.535156 145.210938 L 217.464844 145.210938 C 220.886719 145.210938 223.933594 146.582031 226.179688 148.820312 C 228.417969 151.066406 229.789062 154.113281 229.789062 157.535156 L 229.789062 217.464844 L 239.996094 217.464844 L 239.996094 157.535156 C 239.996094 151.328125 237.464844 145.664062 233.398438 141.601562 C 229.335938 137.535156 223.675781 135.003906 217.476562 135.003906 " fill-opacity="1" fill-rule="nonzero"/></svg>