<svg xmlns="http://www.w3.org/2000/svg" xmlns:xlink="http://www.w3.org/1999/xlink" width="500" zoomAndPan="magnify" viewBox="0 0 375 374.999991" height="500" preserveAspectRatio="xMidYMid meet" version="1.0"><defs><clipPath id="6a8a959ba3"><path d="M 92.46875 177.875 L 105.21875 177.875 L 105.21875 182.375 L 92.46875 182.375 Z M 92.46875 177.875 " clip-rule="nonzero"/></clipPath><clipPath id="c24c369c6e"><path d="M 101.6875 254.671875 L 105.4375 254.671875 L 105.4375 258 L 101.6875 258 Z M 101.6875 254.671875 " clip-rule="nonzero"/></clipPath><clipPath id="c055d4065b"><path d="M 101.6875 256 L 105.4375 256 L 105.4375 259.921875 L 101.6875 259.921875 Z M 101.6875 256 " clip-rule="nonzero"/></clipPath><clipPath id="9a6482bc80"><path d="M 104 258 L 105 258 L 105 259.921875 L 104 259.921875 Z M 104 258 " clip-rule="nonzero"/></clipPath><clipPath id="f898afaad5"><path d="M 102 258 L 103 258 L 103 259.921875 L 102 259.921875 Z M 102 258 " clip-rule="nonzero"/></clipPath><clipPath id="fb3dddf4c2"><path d="M 38 41.316406 L 337 41.316406 L 337 264 L 38 264 Z M 38 41.316406 " clip-rule="nonzero"/></clipPath><clipPath id="b7056a4d67"><path d="M 171 281 L 230 281 L 230 333.816406 L 171 333.816406 Z M 171 281 " clip-rule="nonzero"/></clipPath><clipPath id="c769913acd"><path d="M 252 235 L 263 235 L 263 333.816406 L 252 333.816406 Z M 252 235 " clip-rule="nonzero"/></clipPath></defs><g clip-path="url(#6a8a959ba3)"><path stroke-linecap="butt" transform="matrix(0.0215422, 0, 0, 0.0221675, 92.41281, 177.383688)" fill-opacity="1" fill="#000000" fill-rule="nonzero" stroke-linejoin="miter" d="M 472.603394 22.692263 C 424.913679 23.044694 379.037262 36.965702 332.254195 42.604592 C 312.670586 45.071606 292.542988 45.600252 272.959379 43.485668 C 247.02923 40.490008 221.824399 32.736535 195.89425 29.388444 C 172.684047 26.216569 149.111184 23.044694 125.719651 22.868478 C 84.920465 22.692263 45.390587 34.674903 5.31672 41.194869 C 5.31672 52.296433 2.959434 66.569872 8.943315 74.323345 C 15.108525 82.253034 25.625648 89.654077 28.345594 100.579425 C 34.692134 126.306859 43.75862 151.505646 55.363722 175.823358 C 60.984943 187.629783 71.683396 195.735686 83.651157 201.374576 C 112.301252 214.943154 146.209908 217.057738 177.761279 212.82857 C 222.549718 206.661035 246.8479 174.942281 265.343531 138.64193 C 272.41539 123.839844 273.140708 106.74696 282.207194 93.354598 C 287.647086 85.248694 300.340166 88.773 309.406651 88.596785 C 318.291807 88.596785 325.907655 102.870224 328.808931 112.209635 C 338.600735 145.514326 355.101739 180.933601 387.922418 198.378916 C 437.06277 224.45878 514.127899 219.700967 545.860599 172.651482 C 558.372349 154.148876 561.817614 131.769533 567.982824 110.976128 C 571.790748 98.288626 575.236013 83.13411 588.835741 76.085498 C 594.275633 73.266054 590.467709 62.16449 591.193027 55.468309 C 592.099676 48.419697 593.731643 42.075946 583.03319 40.666223 C 564.35623 38.375425 546.223258 30.798167 527.002309 28.331152 C 508.869337 26.040354 491.099025 22.516048 472.603394 22.692263 Z M 157.452351 34.498688 C 171.052079 34.498688 184.470478 35.379764 197.707547 38.022994 C 276.041984 53.706156 277.673951 84.191402 245.397262 147.100264 C 219.104454 198.555131 164.52421 211.418848 109.762636 199.083777 C 84.376476 193.444888 67.150153 176.704434 58.990316 153.972661 C 50.467819 129.831165 43.93995 104.279946 45.390587 78.904943 C 47.385214 44.895391 88.00307 40.137578 117.015824 37.141917 C 130.434223 35.732195 144.033952 34.674903 157.452351 34.498688 Z M 443.59064 34.498688 C 457.190369 34.674903 470.790097 35.732195 484.027166 37.141917 C 513.22125 40.137578 553.839106 44.895391 555.652403 78.904943 C 557.284371 104.279946 550.756501 129.831165 542.052675 153.972661 C 533.892838 176.704434 516.666515 193.444888 491.280355 199.083777 C 436.518781 211.418848 382.119867 198.555131 355.827058 147.100264 C 323.550369 84.191402 325.001007 53.706156 403.516773 38.022994 C 416.572513 35.379764 429.990911 34.498688 443.59064 34.498688 Z M 443.59064 34.498688 " stroke="#000000" stroke-width="1" stroke-opacity="1" stroke-miterlimit="4"/></g><g clip-path="url(#c24c369c6e)"><path fill="#ffffff" d="M 103.554688 254.851562 C 102.4375 254.851562 101.953125 255.617188 101.953125 256.007812 C 101.953125 256.769531 102.019531 256.941406 102.046875 256.980469 C 102.101562 256.929688 102.171875 256.628906 102.214844 256.445312 C 102.304688 256.050781 102.378906 255.742188 102.578125 255.742188 C 102.667969 255.742188 102.765625 255.769531 102.878906 255.804688 C 103.050781 255.855469 103.261719 255.917969 103.546875 255.917969 C 103.550781 255.917969 103.550781 255.917969 103.554688 255.917969 C 104.074219 255.914062 104.28125 255.878906 104.414062 255.851562 C 104.488281 255.839844 104.546875 255.828125 104.621094 255.828125 C 104.777344 255.828125 104.824219 256.0625 104.898438 256.417969 C 104.933594 256.59375 105 256.917969 105.0625 256.980469 C 105.09375 256.9375 105.15625 256.753906 105.15625 256.007812 C 105.15625 255.617188 104.671875 254.851562 103.554688 254.851562 Z M 102.058594 256.988281 Z M 105.066406 257.164062 C 104.867188 257.164062 104.800781 256.832031 104.722656 256.453125 C 104.691406 256.296875 104.644531 256.066406 104.605469 256.007812 C 104.550781 256.007812 104.507812 256.015625 104.445312 256.027344 C 104.304688 256.054688 104.09375 256.089844 103.5625 256.097656 C 103.558594 256.097656 103.558594 256.097656 103.554688 256.097656 C 103.238281 256.097656 103.003906 256.027344 102.828125 255.972656 C 102.726562 255.941406 102.644531 255.917969 102.578125 255.917969 C 102.511719 255.953125 102.429688 256.300781 102.386719 256.484375 C 102.300781 256.863281 102.230469 257.164062 102.042969 257.164062 C 101.847656 257.164062 101.777344 256.859375 101.777344 256.007812 C 101.777344 255.542969 102.296875 254.671875 103.554688 254.671875 C 104.8125 254.671875 105.332031 255.542969 105.332031 256.007812 C 105.332031 256.859375 105.265625 257.164062 105.066406 257.164062 " fill-opacity="1" fill-rule="nonzero"/></g><g clip-path="url(#c055d4065b)"><path fill="#ffffff" d="M 103.554688 259.652344 C 103.09375 259.652344 103.011719 259.5625 102.792969 259.3125 C 102.753906 259.273438 102.710938 259.226562 102.664062 259.171875 C 102.660156 259.167969 102.65625 259.167969 102.65625 259.164062 C 102.628906 259.125 102.59375 259.085938 102.550781 259.042969 C 102.386719 258.867188 102.167969 258.632812 102.136719 258.105469 C 102.085938 258.113281 102.039062 258.105469 101.988281 258.085938 C 101.808594 258.003906 101.6875 257.703125 101.6875 257.339844 C 101.6875 257.136719 101.726562 257.019531 101.808594 256.96875 C 101.898438 256.910156 101.996094 256.957031 102.042969 256.980469 C 102.046875 256.980469 102.054688 256.984375 102.058594 256.988281 C 102.101562 256.992188 102.132812 257.03125 102.132812 257.074219 C 102.132812 257.125 102.09375 257.164062 102.042969 257.164062 C 102.015625 257.164062 101.992188 257.152344 101.964844 257.140625 C 101.949219 257.132812 101.914062 257.117188 101.902344 257.117188 C 101.902344 257.117188 101.867188 257.152344 101.867188 257.339844 C 101.867188 257.648438 101.964844 257.878906 102.0625 257.921875 C 102.078125 257.929688 102.109375 257.945312 102.164062 257.894531 C 102.1875 257.875 102.226562 257.867188 102.257812 257.882812 C 102.289062 257.898438 102.308594 257.929688 102.308594 257.964844 C 102.308594 258.523438 102.515625 258.746094 102.679688 258.921875 C 102.722656 258.964844 102.761719 259.007812 102.796875 259.054688 C 102.84375 259.105469 102.886719 259.152344 102.921875 259.195312 C 103.128906 259.425781 103.171875 259.476562 103.554688 259.476562 C 103.9375 259.476562 103.980469 259.425781 104.1875 259.195312 C 104.222656 259.152344 104.265625 259.105469 104.3125 259.054688 C 104.347656 259.007812 104.386719 258.964844 104.429688 258.921875 C 104.59375 258.746094 104.800781 258.523438 104.800781 257.964844 C 104.800781 257.929688 104.820312 257.898438 104.851562 257.882812 C 104.882812 257.867188 104.921875 257.875 104.949219 257.894531 C 105 257.945312 105.035156 257.929688 105.046875 257.921875 C 105.144531 257.878906 105.246094 257.648438 105.246094 257.339844 C 105.246094 257.148438 105.207031 257.117188 105.207031 257.117188 C 105.195312 257.117188 105.160156 257.132812 105.144531 257.140625 C 105.117188 257.152344 105.09375 257.164062 105.066406 257.164062 C 105.019531 257.164062 104.976562 257.125 104.976562 257.074219 C 104.976562 257.03125 105.011719 256.992188 105.050781 256.988281 C 105.054688 256.984375 105.0625 256.980469 105.066406 256.980469 C 105.113281 256.957031 105.210938 256.910156 105.300781 256.96875 C 105.382812 257.019531 105.421875 257.136719 105.421875 257.339844 C 105.421875 257.703125 105.300781 258.003906 105.121094 258.085938 C 105.074219 258.105469 105.023438 258.113281 104.972656 258.105469 C 104.941406 258.632812 104.722656 258.867188 104.558594 259.042969 C 104.519531 259.085938 104.480469 259.125 104.457031 259.164062 C 104.453125 259.167969 104.449219 259.167969 104.449219 259.171875 C 104.398438 259.226562 104.355469 259.273438 104.320312 259.3125 C 104.097656 259.5625 104.015625 259.652344 103.554688 259.652344 " fill-opacity="1" fill-rule="nonzero"/></g><g clip-path="url(#9a6482bc80)"><path fill="#ffffff" d="M 104.613281 259.652344 C 104.59375 259.652344 104.570312 259.644531 104.550781 259.628906 C 104.316406 259.390625 104.324219 259.082031 104.324219 259.066406 C 104.328125 259.019531 104.367188 258.980469 104.417969 258.980469 C 104.464844 258.984375 104.503906 259.027344 104.503906 259.074219 C 104.503906 259.078125 104.5 259.324219 104.675781 259.5 C 104.710938 259.535156 104.710938 259.59375 104.675781 259.628906 C 104.660156 259.644531 104.636719 259.652344 104.613281 259.652344 " fill-opacity="1" fill-rule="nonzero"/></g><g clip-path="url(#f898afaad5)"><path fill="#ffffff" d="M 102.496094 259.652344 C 102.472656 259.652344 102.449219 259.644531 102.433594 259.628906 C 102.398438 259.59375 102.398438 259.535156 102.433594 259.5 C 102.613281 259.320312 102.605469 259.078125 102.605469 259.074219 C 102.605469 259.027344 102.644531 258.984375 102.691406 258.980469 C 102.742188 258.980469 102.78125 259.019531 102.785156 259.066406 C 102.785156 259.082031 102.792969 259.390625 102.558594 259.628906 C 102.539062 259.644531 102.519531 259.652344 102.496094 259.652344 " fill-opacity="1" fill-rule="nonzero"/></g><g clip-path="url(#fb3dddf4c2)"><path fill="#ffffff" d="M 252.003906 253.5625 L 205.976562 253.5625 L 205.976562 263.84375 L 252.003906 263.84375 L 252.003906 253.5625 M 137.980469 41.316406 C 137.976562 41.316406 137.976562 41.316406 137.972656 41.316406 C 119.464844 41.3125 102.664062 48.832031 90.542969 60.960938 C 78.410156 73.085938 70.894531 89.886719 70.898438 108.390625 C 70.894531 118.199219 73.015625 127.53125 76.808594 135.9375 C 66.21875 140.871094 57.140625 148.480469 50.433594 157.898438 C 42.628906 168.855469 38.027344 182.296875 38.03125 196.765625 C 38.027344 215.269531 45.546875 232.074219 57.675781 244.195312 C 69.796875 256.324219 86.597656 263.84375 105.097656 263.84375 C 105.101562 263.84375 105.105469 263.84375 105.109375 263.84375 L 195.695312 263.84375 L 195.695312 253.5625 L 105.105469 253.5625 C 89.40625 253.558594 75.238281 247.214844 64.945312 236.925781 C 54.660156 226.632812 48.3125 212.464844 48.3125 196.765625 C 48.3125 184.480469 52.195312 173.152344 58.804688 163.863281 C 65.421875 154.574219 74.761719 147.359375 85.644531 143.390625 C 87.0625 142.875 88.179688 141.765625 88.703125 140.351562 C 89.226562 138.941406 89.105469 137.371094 88.371094 136.054688 C 83.792969 127.859375 81.175781 118.449219 81.175781 108.390625 C 81.179688 92.691406 87.523438 78.523438 97.8125 68.230469 C 108.105469 57.945312 122.273438 51.597656 137.972656 51.597656 C 149.941406 51.597656 160.996094 55.285156 170.152344 61.59375 C 179.296875 67.902344 186.511719 76.835938 190.699219 87.285156 C 191.25 88.664062 192.355469 89.722656 193.761719 90.21875 C 194.320312 90.414062 194.898438 90.511719 195.476562 90.511719 C 196.34375 90.511719 197.207031 90.292969 197.984375 89.855469 C 204.78125 86.042969 212.589844 83.863281 220.945312 83.863281 C 233.945312 83.867188 245.664062 89.117188 254.191406 97.632812 C 262.707031 106.160156 267.960938 117.878906 267.960938 130.878906 C 267.960938 132.0625 267.898438 133.273438 267.804688 134.519531 C 267.703125 135.910156 268.15625 137.265625 269.078125 138.308594 C 270 139.355469 271.292969 139.972656 272.683594 140.042969 L 272.933594 134.90625 L 272.683594 140.042969 C 287.726562 140.769531 301.207031 147.332031 310.960938 157.539062 C 320.710938 167.75 326.6875 181.535156 326.691406 196.765625 C 326.6875 212.46875 320.339844 226.632812 310.054688 236.929688 C 299.761719 247.214844 285.59375 253.5625 269.894531 253.566406 L 262.285156 253.566406 L 262.285156 263.84375 L 269.894531 263.84375 C 288.402344 263.847656 305.203125 256.328125 317.324219 244.199219 C 329.457031 232.074219 336.972656 215.273438 336.96875 196.765625 C 336.972656 178.8125 329.894531 162.460938 318.394531 150.4375 C 308.003906 139.558594 293.957031 132.160156 278.238281 130.210938 C 278.058594 114.667969 271.671875 100.574219 261.460938 90.367188 C 251.109375 80.007812 236.757812 73.585938 220.957031 73.585938 C 220.953125 73.585938 220.949219 73.585938 220.945312 73.585938 C 212.78125 73.582031 205 75.304688 197.960938 78.394531 C 192.871094 68.226562 185.277344 59.542969 175.988281 53.132812 C 165.195312 45.683594 152.074219 41.316406 137.980469 41.316406 " fill-opacity="1" fill-rule="nonzero"/></g><g clip-path="url(#b7056a4d67)"><path fill="#ffffff" d="M 200.835938 318.261719 L 185.722656 292.085938 L 215.945312 292.085938 L 200.835938 318.261719 M 224.851562 286.941406 L 220.398438 284.375 L 224.851562 286.941406 M 224.851562 281.804688 L 205.976562 281.804688 L 205.976562 292.085938 L 195.695312 292.085938 L 195.695312 281.804688 L 176.820312 281.804688 C 174.980469 281.804688 173.285156 282.785156 172.367188 284.375 C 171.449219 285.964844 171.449219 287.921875 172.367188 289.515625 L 196.382812 331.109375 C 197.300781 332.699219 199 333.679688 200.835938 333.679688 C 202.671875 333.679688 204.367188 332.699219 205.285156 331.109375 L 229.300781 289.515625 C 230.21875 287.921875 230.21875 285.964844 229.300781 284.375 C 228.382812 282.785156 226.6875 281.804688 224.851562 281.804688 " fill-opacity="1" fill-rule="nonzero"/></g><path fill="#ffffff" d="M 257.144531 183.722656 C 255.308594 183.722656 253.613281 184.703125 252.695312 186.292969 L 228.675781 227.890625 C 227.757812 229.480469 227.757812 231.4375 228.675781 233.03125 C 229.59375 234.621094 231.292969 235.597656 233.128906 235.597656 L 252.003906 235.597656 L 252.003906 225.320312 L 242.03125 225.320312 L 257.144531 199.144531 L 272.257812 225.320312 L 262.285156 225.320312 L 262.285156 235.597656 L 281.160156 235.597656 C 282.996094 235.597656 284.691406 234.621094 285.609375 233.03125 C 286.527344 231.441406 286.527344 229.480469 285.609375 227.890625 L 261.597656 186.292969 C 260.675781 184.703125 258.980469 183.722656 257.144531 183.722656 " fill-opacity="1" fill-rule="nonzero"/><path fill="#ffffff" d="M 205.972656 263.84375 L 195.695312 263.84375 L 195.695312 281.804688 L 205.972656 281.804688 L 205.972656 263.84375 M 205.972656 183.722656 L 195.695312 183.722656 L 195.695312 253.5625 L 205.972656 253.5625 L 205.972656 183.722656 " fill-opacity="1" fill-rule="nonzero"/><path fill="#ffffff" d="M 205.972656 253.5625 L 195.695312 253.5625 L 195.695312 263.84375 L 205.972656 263.84375 L 205.972656 253.5625 " fill-opacity="1" fill-rule="nonzero"/><path fill="#ffffff" d="M 205.972656 281.804688 L 195.695312 281.804688 L 195.695312 292.085938 L 205.972656 292.085938 L 205.972656 281.804688 " fill-opacity="1" fill-rule="nonzero"/><g clip-path="url(#c769913acd)"><path fill="#ffffff" d="M 262.285156 263.84375 L 252.003906 263.84375 L 252.003906 333.679688 L 262.285156 333.679688 L 262.285156 263.84375 M 262.285156 235.597656 L 252.003906 235.597656 L 252.003906 253.5625 L 262.285156 253.5625 L 262.285156 235.597656 " fill-opacity="1" fill-rule="nonzero"/></g><path fill="#ffffff" d="M 262.285156 253.5625 L 252.003906 253.5625 L 252.003906 263.84375 L 262.285156 263.84375 L 262.285156 253.5625 " fill-opacity="1" fill-rule="nonzero"/><path fill="#ffffff" d="M 262.285156 225.320312 L 252.003906 225.320312 L 252.003906 235.597656 L 262.285156 235.597656 L 262.285156 225.320312 " fill-opacity="1" fill-rule="nonzero"/></svg>