<svg xmlns="http://www.w3.org/2000/svg" xmlns:xlink="http://www.w3.org/1999/xlink" width="500" zoomAndPan="magnify" viewBox="0 0 375 374.999991" height="500" preserveAspectRatio="xMidYMid meet" version="1.0"><defs><clipPath id="b41731f05f"><path d="M 92.46875 177.875 L 105.21875 177.875 L 105.21875 182.375 L 92.46875 182.375 Z M 92.46875 177.875 " clip-rule="nonzero"/></clipPath><clipPath id="dec16e0f18"><path d="M 80 37.5 L 295 37.5 L 295 188 L 80 188 Z M 80 37.5 " clip-rule="nonzero"/></clipPath><clipPath id="c170d15dd9"><path d="M 75 174 L 300 174 L 300 337.5 L 75 337.5 Z M 75 174 " clip-rule="nonzero"/></clipPath><clipPath id="ec8899eb08"><path d="M 233 297 L 257 297 L 257 337.5 L 233 337.5 Z M 233 297 " clip-rule="nonzero"/></clipPath><clipPath id="6ee85925e4"><path d="M 118 297 L 142 297 L 142 337.5 L 118 337.5 Z M 118 297 " clip-rule="nonzero"/></clipPath></defs><g clip-path="url(#b41731f05f)"><path stroke-linecap="butt" transform="matrix(0.0215422, 0, 0, 0.0221675, 92.41281, 177.383688)" fill-opacity="1" fill="#000000" fill-rule="nonzero" stroke-linejoin="miter" d="M 472.603394 22.692263 C 424.913679 23.044694 379.037262 36.965702 332.254195 42.604592 C 312.670586 45.071606 292.542988 45.600252 272.959379 43.485668 C 247.02923 40.490008 221.824399 32.736535 195.89425 29.388444 C 172.684047 26.216569 149.111184 23.044694 125.719651 22.868478 C 84.920465 22.692263 45.390587 34.674903 5.31672 41.194869 C 5.31672 52.296433 2.959434 66.569872 8.943315 74.323345 C 15.108525 82.253034 25.625648 89.654077 28.345594 100.579425 C 34.692134 126.306859 43.75862 151.505646 55.363722 175.823358 C 60.984943 187.629783 71.683396 195.735686 83.651157 201.374576 C 112.301252 214.943154 146.209908 217.057738 177.761279 212.82857 C 222.549718 206.661035 246.8479 174.942281 265.343531 138.64193 C 272.41539 123.839844 273.140708 106.74696 282.207194 93.354598 C 287.647086 85.248694 300.340166 88.773 309.406651 88.596785 C 318.291807 88.596785 325.907655 102.870224 328.808931 112.209635 C 338.600735 145.514326 355.101739 180.933601 387.922418 198.378916 C 437.06277 224.45878 514.127899 219.700967 545.860599 172.651482 C 558.372349 154.148876 561.817614 131.769533 567.982824 110.976128 C 571.790748 98.288626 575.236013 83.13411 588.835741 76.085498 C 594.275633 73.266054 590.467709 62.16449 591.193027 55.468309 C 592.099676 48.419697 593.731643 42.075946 583.03319 40.666223 C 564.35623 38.375425 546.223258 30.798167 527.002309 28.331152 C 508.869337 26.040354 491.099025 22.516048 472.603394 22.692263 Z M 157.452351 34.498688 C 171.052079 34.498688 184.470478 35.379764 197.707547 38.022994 C 276.041984 53.706156 277.673951 84.191402 245.397262 147.100264 C 219.104454 198.555131 164.52421 211.418848 109.762636 199.083777 C 84.376476 193.444888 67.150153 176.704434 58.990316 153.972661 C 50.467819 129.831165 43.93995 104.279946 45.390587 78.904943 C 47.385214 44.895391 88.00307 40.137578 117.015824 37.141917 C 130.434223 35.732195 144.033952 34.674903 157.452351 34.498688 Z M 443.59064 34.498688 C 457.190369 34.674903 470.790097 35.732195 484.027166 37.141917 C 513.22125 40.137578 553.839106 44.895391 555.652403 78.904943 C 557.284371 104.279946 550.756501 129.831165 542.052675 153.972661 C 533.892838 176.704434 516.666515 193.444888 491.280355 199.083777 C 436.518781 211.418848 382.119867 198.555131 355.827058 147.100264 C 323.550369 84.191402 325.001007 53.706156 403.516773 38.022994 C 416.572513 35.379764 429.990911 34.498688 443.59064 34.498688 Z M 443.59064 34.498688 " stroke="#000000" stroke-width="1" stroke-opacity="1" stroke-miterlimit="4"/></g><g clip-path="url(#dec16e0f18)"><path fill="#ffffff" d="M 187.5 48.214844 C 120.199219 48.214844 91.070312 94.335938 91.070312 117.855469 C 91.070312 163.664062 94.984375 174.128906 96.761719 176.511719 C 99.984375 173.480469 104.191406 155.292969 106.746094 144.285156 C 112.25 120.535156 116.601562 101.785156 128.570312 101.785156 C 134.03125 101.785156 139.976562 103.5625 146.839844 105.59375 C 157.074219 108.648438 169.773438 112.4375 187.058594 112.5 C 187.207031 112.480469 187.332031 112.480469 187.457031 112.480469 C 218.804688 112.25 231.132812 110.03125 239.292969 108.566406 C 243.707031 107.769531 247.222656 107.144531 251.785156 107.144531 C 261.117188 107.144531 263.984375 121.207031 268.316406 142.507812 C 270.492188 153.203125 274.449219 172.640625 278.320312 176.386719 C 280.140625 173.792969 283.929688 162.910156 283.929688 117.855469 C 283.929688 94.335938 254.800781 48.214844 187.5 48.214844 Z M 97.246094 177.015625 L 97.285156 177.015625 Z M 278.570312 187.5 C 266.539062 187.5 262.5 167.640625 257.832031 144.644531 C 255.929688 135.289062 253.082031 121.414062 250.65625 117.878906 C 247.558594 117.960938 244.941406 118.441406 241.195312 119.113281 C 232.699219 120.640625 219.894531 122.941406 187.980469 123.191406 C 187.8125 123.214844 187.667969 123.214844 187.5 123.214844 C 168.414062 123.214844 154.183594 118.964844 143.785156 115.867188 C 137.546875 114.007812 132.609375 112.542969 128.738281 112.5 C 124.636719 114.613281 119.804688 135.457031 117.1875 146.714844 C 111.894531 169.503906 107.730469 187.5 96.429688 187.5 C 84.5625 187.5 80.355469 169.273438 80.355469 117.855469 C 80.355469 89.835938 111.789062 37.5 187.5 37.5 C 263.210938 37.5 294.644531 89.835938 294.644531 117.855469 C 294.644531 169.273438 290.4375 187.5 278.570312 187.5 " fill-opacity="1" fill-rule="nonzero"/></g><g clip-path="url(#c170d15dd9)"><path fill="#ffffff" d="M 187.5 337.5 C 159.730469 337.5 154.75 331.933594 141.484375 317.035156 C 139.222656 314.523438 136.691406 311.675781 133.71875 308.496094 C 133.550781 308.328125 133.40625 308.140625 133.257812 307.953125 C 131.648438 305.691406 129.492188 303.367188 126.980469 300.691406 C 117.167969 290.183594 104.023438 276.101562 102.035156 244.148438 C 99.085938 244.691406 96.09375 244.316406 93.183594 242.976562 C 82.304688 238.015625 75 220.039062 75 198.214844 C 75 186.015625 77.34375 178.855469 82.34375 175.699219 C 87.742188 172.285156 93.582031 175.089844 96.40625 176.429688 C 96.742188 176.597656 97.054688 176.742188 97.328125 176.871094 C 99.859375 177.289062 101.785156 179.484375 101.785156 182.144531 C 101.785156 185.09375 99.378906 187.5 96.429688 187.5 C 94.734375 187.5 93.308594 186.808594 91.804688 186.097656 C 90.863281 185.660156 88.726562 184.652344 87.996094 184.78125 C 88.015625 184.78125 85.714844 186.746094 85.714844 198.214844 C 85.714844 216.734375 91.78125 230.566406 97.640625 233.246094 C 98.457031 233.621094 100.382812 234.5 103.628906 231.65625 C 105.21875 230.292969 107.457031 229.960938 109.359375 230.839844 C 111.265625 231.71875 112.5 233.621094 112.5 235.714844 C 112.5 269.488281 124.867188 282.734375 134.808594 293.367188 C 137.359375 296.109375 139.789062 298.703125 141.777344 301.421875 C 144.726562 304.582031 147.238281 307.40625 149.476562 309.917969 C 161.929688 323.875 164.523438 326.785156 187.5 326.785156 C 210.476562 326.785156 213.070312 323.875 225.523438 309.917969 C 227.78125 307.40625 230.273438 304.582031 233.222656 301.421875 C 235.210938 298.703125 237.640625 296.109375 240.191406 293.367188 C 250.132812 282.734375 262.5 269.488281 262.5 235.714844 C 262.5 233.621094 263.714844 231.71875 265.640625 230.839844 C 267.542969 229.980469 269.78125 230.292969 271.371094 231.65625 C 274.636719 234.5 276.542969 233.601562 277.359375 233.246094 C 283.21875 230.566406 289.285156 216.734375 289.285156 198.214844 C 289.285156 186.683594 286.960938 184.757812 286.921875 184.757812 C 286.292969 184.632812 284.117188 185.660156 283.195312 186.097656 C 281.710938 186.808594 280.289062 187.5 278.570312 187.5 C 275.621094 187.5 273.214844 185.09375 273.214844 182.144531 C 273.214844 179.484375 275.140625 177.289062 277.691406 176.871094 C 277.945312 176.742188 278.257812 176.597656 278.59375 176.429688 C 281.417969 175.089844 287.253906 172.285156 292.65625 175.699219 C 297.675781 178.855469 300 186.015625 300 198.214844 C 300 220.039062 292.695312 238.015625 281.816406 242.976562 C 278.925781 244.316406 275.914062 244.691406 272.964844 244.148438 C 270.996094 276.101562 257.832031 290.183594 248.019531 300.691406 C 245.507812 303.367188 243.332031 305.691406 241.71875 307.953125 C 241.59375 308.140625 241.449219 308.328125 241.28125 308.496094 C 238.308594 311.675781 235.777344 314.523438 233.515625 317.035156 C 220.25 331.933594 215.269531 337.5 187.5 337.5 " fill-opacity="1" fill-rule="nonzero"/></g><g clip-path="url(#ec8899eb08)"><path fill="#ffffff" d="M 251.324219 337.5 C 249.964844 337.5 248.605469 336.976562 247.558594 335.929688 C 233.328125 321.722656 233.871094 303.011719 233.894531 302.238281 C 234 299.265625 236.320312 296.921875 239.4375 297.070312 C 242.390625 297.175781 244.691406 299.664062 244.609375 302.617188 C 244.585938 302.886719 244.335938 317.578125 255.113281 328.355469 C 257.226562 330.449219 257.226562 333.835938 255.113281 335.929688 C 254.066406 336.976562 252.707031 337.5 251.324219 337.5 " fill-opacity="1" fill-rule="nonzero"/></g><g clip-path="url(#6ee85925e4)"><path fill="#ffffff" d="M 123.652344 337.5 C 122.292969 337.5 120.933594 336.976562 119.867188 335.929688 C 117.792969 333.835938 117.792969 330.449219 119.867188 328.355469 C 130.808594 317.410156 130.414062 302.78125 130.390625 302.617188 C 130.289062 299.664062 132.589844 297.195312 135.5625 297.070312 C 138.59375 296.902344 141 299.265625 141.105469 302.238281 C 141.128906 303.011719 141.671875 321.722656 127.460938 335.929688 C 126.394531 336.976562 125.035156 337.5 123.652344 337.5 " fill-opacity="1" fill-rule="nonzero"/></g></svg>