<svg xmlns="http://www.w3.org/2000/svg" xmlns:xlink="http://www.w3.org/1999/xlink" width="500" zoomAndPan="magnify" viewBox="0 0 375 374.999991" height="500" preserveAspectRatio="xMidYMid meet" version="1.0"><defs><clipPath id="209409c4f4"><path d="M 92.46875 177.875 L 105.21875 177.875 L 105.21875 182.375 L 92.46875 182.375 Z M 92.46875 177.875 " clip-rule="nonzero"/></clipPath><clipPath id="1c2833ea65"><path d="M 108.613281 261.222656 L 112.363281 261.222656 L 112.363281 264 L 108.613281 264 Z M 108.613281 261.222656 " clip-rule="nonzero"/></clipPath><clipPath id="fc2beaf8a3"><path d="M 108.613281 263 L 112.363281 263 L 112.363281 266.472656 L 108.613281 266.472656 Z M 108.613281 263 " clip-rule="nonzero"/></clipPath><clipPath id="ca0e90a690"><path d="M 111 265 L 112 265 L 112 266.472656 L 111 266.472656 Z M 111 265 " clip-rule="nonzero"/></clipPath><clipPath id="fba0d44206"><path d="M 109 265 L 110 265 L 110 266.472656 L 109 266.472656 Z M 109 265 " clip-rule="nonzero"/></clipPath><clipPath id="36d1fefdca"><path d="M 37.5 105 L 180 105 L 180 271 L 37.5 271 Z M 37.5 105 " clip-rule="nonzero"/></clipPath><clipPath id="7c1556efd6"><path d="M 172 105 L 337.5 105 L 337.5 271 L 172 271 Z M 172 105 " clip-rule="nonzero"/></clipPath></defs><g clip-path="url(#209409c4f4)"><path stroke-linecap="butt" transform="matrix(0.0215422, 0, 0, 0.0221675, 92.41281, 177.383688)" fill-opacity="1" fill="#000000" fill-rule="nonzero" stroke-linejoin="miter" d="M 472.603394 22.692263 C 424.913679 23.044694 379.037262 36.965702 332.254195 42.604592 C 312.670586 45.071606 292.542988 45.600252 272.959379 43.485668 C 247.02923 40.490008 221.824399 32.736535 195.89425 29.388444 C 172.684047 26.216569 149.111184 23.044694 125.719651 22.868478 C 84.920465 22.692263 45.390587 34.674903 5.31672 41.194869 C 5.31672 52.296433 2.959434 66.569872 8.943315 74.323345 C 15.108525 82.253034 25.625648 89.654077 28.345594 100.579425 C 34.692134 126.306859 43.75862 151.505646 55.363722 175.823358 C 60.984943 187.629783 71.683396 195.735686 83.651157 201.374576 C 112.301252 214.943154 146.209908 217.057738 177.761279 212.82857 C 222.549718 206.661035 246.8479 174.942281 265.343531 138.64193 C 272.41539 123.839844 273.140708 106.74696 282.207194 93.354598 C 287.647086 85.248694 300.340166 88.773 309.406651 88.596785 C 318.291807 88.596785 325.907655 102.870224 328.808931 112.209635 C 338.600735 145.514326 355.101739 180.933601 387.922418 198.378916 C 437.06277 224.45878 514.127899 219.700967 545.860599 172.651482 C 558.372349 154.148876 561.817614 131.769533 567.982824 110.976128 C 571.790748 98.288626 575.236013 83.13411 588.835741 76.085498 C 594.275633 73.266054 590.467709 62.16449 591.193027 55.468309 C 592.099676 48.419697 593.731643 42.075946 583.03319 40.666223 C 564.35623 38.375425 546.223258 30.798167 527.002309 28.331152 C 508.869337 26.040354 491.099025 22.516048 472.603394 22.692263 Z M 157.452351 34.498688 C 171.052079 34.498688 184.470478 35.379764 197.707547 38.022994 C 276.041984 53.706156 277.673951 84.191402 245.397262 147.100264 C 219.104454 198.555131 164.52421 211.418848 109.762636 199.083777 C 84.376476 193.444888 67.150153 176.704434 58.990316 153.972661 C 50.467819 129.831165 43.93995 104.279946 45.390587 78.904943 C 47.385214 44.895391 88.00307 40.137578 117.015824 37.141917 C 130.434223 35.732195 144.033952 34.674903 157.452351 34.498688 Z M 443.59064 34.498688 C 457.190369 34.674903 470.790097 35.732195 484.027166 37.141917 C 513.22125 40.137578 553.839106 44.895391 555.652403 78.904943 C 557.284371 104.279946 550.756501 129.831165 542.052675 153.972661 C 533.892838 176.704434 516.666515 193.444888 491.280355 199.083777 C 436.518781 211.418848 382.119867 198.555131 355.827058 147.100264 C 323.550369 84.191402 325.001007 53.706156 403.516773 38.022994 C 416.572513 35.379764 429.990911 34.498688 443.59064 34.498688 Z M 443.59064 34.498688 " stroke="#000000" stroke-width="1" stroke-opacity="1" stroke-miterlimit="4"/></g><g clip-path="url(#1c2833ea65)"><path fill="#ffffff" d="M 110.484375 261.402344 C 109.367188 261.402344 108.882812 262.167969 108.882812 262.558594 C 108.882812 263.316406 108.945312 263.492188 108.976562 263.53125 C 109.03125 263.480469 109.101562 263.179688 109.140625 262.996094 C 109.234375 262.601562 109.304688 262.289062 109.503906 262.289062 C 109.59375 262.289062 109.695312 262.320312 109.808594 262.355469 C 109.976562 262.402344 110.1875 262.46875 110.476562 262.46875 C 110.476562 262.46875 110.480469 262.46875 110.480469 262.46875 C 111.003906 262.464844 111.207031 262.425781 111.34375 262.402344 C 111.414062 262.390625 111.472656 262.378906 111.550781 262.378906 C 111.703125 262.378906 111.753906 262.613281 111.824219 262.964844 C 111.859375 263.144531 111.925781 263.464844 111.992188 263.527344 C 112.019531 263.484375 112.082031 263.304688 112.082031 262.558594 C 112.082031 262.167969 111.601562 261.402344 110.484375 261.402344 Z M 108.984375 263.539062 Z M 111.996094 263.714844 C 111.796875 263.714844 111.726562 263.382812 111.652344 263 C 111.617188 262.847656 111.570312 262.617188 111.53125 262.558594 C 111.480469 262.558594 111.4375 262.566406 111.375 262.578125 C 111.234375 262.601562 111.019531 262.640625 110.492188 262.644531 C 110.488281 262.644531 110.484375 262.644531 110.484375 262.644531 C 110.164062 262.644531 109.929688 262.574219 109.757812 262.523438 C 109.652344 262.492188 109.570312 262.46875 109.507812 262.46875 C 109.4375 262.503906 109.359375 262.847656 109.316406 263.035156 C 109.226562 263.414062 109.160156 263.714844 108.972656 263.714844 C 108.773438 263.714844 108.703125 263.410156 108.703125 262.558594 C 108.703125 262.09375 109.226562 261.222656 110.484375 261.222656 C 111.738281 261.222656 112.261719 262.09375 112.261719 262.558594 C 112.261719 263.410156 112.191406 263.714844 111.996094 263.714844 " fill-opacity="1" fill-rule="nonzero"/></g><g clip-path="url(#fc2beaf8a3)"><path fill="#ffffff" d="M 110.484375 266.203125 C 110.023438 266.203125 109.9375 266.109375 109.71875 265.863281 C 109.679688 265.820312 109.640625 265.773438 109.589844 265.722656 C 109.585938 265.71875 109.585938 265.714844 109.582031 265.714844 C 109.554688 265.675781 109.519531 265.636719 109.476562 265.59375 C 109.316406 265.417969 109.097656 265.183594 109.0625 264.652344 C 109.015625 264.664062 108.964844 264.65625 108.917969 264.632812 C 108.738281 264.550781 108.613281 264.253906 108.613281 263.890625 C 108.613281 263.6875 108.652344 263.570312 108.738281 263.515625 C 108.828125 263.460938 108.921875 263.507812 108.96875 263.53125 C 108.976562 263.53125 108.980469 263.535156 108.984375 263.535156 C 109.027344 263.542969 109.058594 263.582031 109.058594 263.625 C 109.058594 263.671875 109.019531 263.714844 108.972656 263.714844 C 108.941406 263.714844 108.917969 263.703125 108.894531 263.691406 C 108.878906 263.683594 108.84375 263.667969 108.832031 263.667969 C 108.832031 263.667969 108.792969 263.699219 108.792969 263.890625 C 108.792969 264.199219 108.894531 264.429688 108.992188 264.472656 C 109.003906 264.480469 109.035156 264.492188 109.089844 264.445312 C 109.117188 264.421875 109.152344 264.417969 109.1875 264.433594 C 109.21875 264.449219 109.238281 264.480469 109.238281 264.515625 C 109.238281 265.074219 109.441406 265.292969 109.609375 265.472656 C 109.652344 265.515625 109.691406 265.558594 109.722656 265.605469 C 109.773438 265.65625 109.8125 265.703125 109.851562 265.746094 C 110.058594 265.976562 110.101562 266.027344 110.484375 266.027344 C 110.863281 266.027344 110.90625 265.976562 111.113281 265.746094 C 111.152344 265.703125 111.191406 265.65625 111.242188 265.605469 C 111.273438 265.558594 111.316406 265.515625 111.359375 265.472656 C 111.523438 265.292969 111.726562 265.074219 111.726562 264.515625 C 111.726562 264.480469 111.75 264.449219 111.78125 264.433594 C 111.8125 264.417969 111.847656 264.421875 111.875 264.445312 C 111.929688 264.492188 111.960938 264.480469 111.976562 264.472656 C 112.070312 264.429688 112.171875 264.199219 112.171875 263.890625 C 112.171875 263.699219 112.132812 263.667969 112.132812 263.667969 C 112.121094 263.664062 112.085938 263.683594 112.070312 263.691406 C 112.046875 263.703125 112.023438 263.714844 111.996094 263.714844 C 111.945312 263.714844 111.90625 263.671875 111.90625 263.625 C 111.90625 263.582031 111.9375 263.542969 111.980469 263.535156 C 111.984375 263.535156 111.988281 263.53125 111.996094 263.53125 C 112.042969 263.507812 112.140625 263.460938 112.230469 263.515625 C 112.3125 263.570312 112.351562 263.6875 112.351562 263.890625 C 112.351562 264.253906 112.230469 264.550781 112.046875 264.632812 C 112 264.65625 111.949219 264.664062 111.902344 264.652344 C 111.867188 265.183594 111.652344 265.417969 111.488281 265.59375 C 111.445312 265.636719 111.410156 265.675781 111.382812 265.714844 C 111.382812 265.714844 111.378906 265.71875 111.375 265.722656 C 111.328125 265.773438 111.285156 265.820312 111.246094 265.863281 C 111.027344 266.109375 110.945312 266.203125 110.484375 266.203125 " fill-opacity="1" fill-rule="nonzero"/></g><g clip-path="url(#ca0e90a690)"><path fill="#ffffff" d="M 111.542969 266.203125 C 111.519531 266.203125 111.496094 266.195312 111.480469 266.175781 C 111.242188 265.941406 111.253906 265.632812 111.253906 265.617188 C 111.253906 265.570312 111.292969 265.53125 111.34375 265.53125 C 111.394531 265.535156 111.433594 265.574219 111.429688 265.625 C 111.429688 265.628906 111.425781 265.871094 111.605469 266.050781 C 111.640625 266.085938 111.640625 266.144531 111.605469 266.175781 C 111.589844 266.195312 111.566406 266.203125 111.542969 266.203125 " fill-opacity="1" fill-rule="nonzero"/></g><g clip-path="url(#fba0d44206)"><path fill="#ffffff" d="M 109.421875 266.203125 C 109.398438 266.203125 109.378906 266.195312 109.359375 266.175781 C 109.324219 266.144531 109.324219 266.085938 109.359375 266.050781 C 109.542969 265.871094 109.535156 265.628906 109.535156 265.625 C 109.53125 265.574219 109.570312 265.535156 109.621094 265.53125 C 109.671875 265.53125 109.710938 265.570312 109.710938 265.617188 C 109.714844 265.632812 109.722656 265.941406 109.484375 266.175781 C 109.46875 266.195312 109.445312 266.203125 109.421875 266.203125 " fill-opacity="1" fill-rule="nonzero"/></g><path fill="#f4f6fc" d="M 78.875 218.828125 C 77.867188 221.726562 76.984375 224.625 76.292969 227.582031 C 87.070312 239.425781 102.632812 246.929688 119.839844 246.929688 C 137.042969 246.929688 152.609375 239.425781 163.390625 227.582031 C 162.695312 224.625 161.8125 221.726562 160.800781 218.828125 C 157.210938 208.746094 149.585938 200.988281 140.195312 196.832031 C 134.398438 200.863281 127.339844 203.195312 119.839844 203.195312 C 112.339844 203.195312 105.28125 200.863281 99.484375 196.886719 C 90.03125 200.988281 82.46875 208.804688 78.875 218.828125 Z M 78.875 218.828125 " fill-opacity="1" fill-rule="nonzero"/><path fill="#f4f6fc" d="M 119.839844 191.214844 C 133.089844 191.214844 143.910156 180.457031 143.910156 167.152344 C 143.910156 153.898438 133.089844 143.144531 119.839844 143.144531 C 106.585938 143.144531 95.769531 153.898438 95.769531 167.152344 C 95.769531 180.457031 106.585938 191.214844 119.839844 191.214844 Z M 119.839844 191.214844 " fill-opacity="1" fill-rule="nonzero"/><g clip-path="url(#36d1fefdca)"><path fill="#f4f6fc" d="M 119.828125 258.773438 C 80.96875 258.773438 49.324219 227.125 49.324219 188.273438 C 49.324219 149.414062 80.96875 117.804688 119.828125 117.804688 C 141.105469 117.804688 160.222656 127.265625 173.148438 142.199219 C 175.078125 138.652344 177.324219 135.222656 179.808594 131.957031 C 164.792969 115.992188 143.433594 105.980469 119.828125 105.980469 C 74.425781 105.980469 37.5 142.910156 37.5 188.273438 C 37.5 233.667969 74.425781 270.597656 119.828125 270.597656 C 143.472656 270.597656 164.832031 260.585938 179.808594 244.582031 C 177.324219 241.355469 175.117188 237.925781 173.109375 234.378906 C 160.179688 249.3125 141.105469 258.773438 119.828125 258.773438 Z M 119.828125 258.773438 " fill-opacity="1" fill-rule="nonzero"/></g><path fill="#f4f6fc" d="M 275.515625 196.832031 C 269.71875 200.863281 262.660156 203.195312 255.160156 203.195312 C 247.660156 203.195312 240.601562 200.863281 234.804688 196.886719 C 225.351562 200.988281 217.789062 208.804688 214.199219 218.828125 C 213.1875 221.726562 212.304688 224.625 211.613281 227.582031 C 222.394531 239.425781 237.953125 246.929688 255.160156 246.929688 C 272.363281 246.929688 287.929688 239.425781 298.710938 227.582031 C 298.015625 224.625 297.132812 221.726562 296.125 218.828125 C 292.53125 208.746094 284.90625 200.988281 275.515625 196.832031 Z M 275.515625 196.832031 " fill-opacity="1" fill-rule="nonzero"/><path fill="#f4f6fc" d="M 255.160156 191.214844 C 268.414062 191.214844 279.230469 180.457031 279.230469 167.152344 C 279.230469 153.898438 268.414062 143.144531 255.160156 143.144531 C 241.910156 143.144531 231.089844 153.898438 231.089844 167.152344 C 231.089844 180.457031 241.910156 191.214844 255.160156 191.214844 Z M 255.160156 191.214844 " fill-opacity="1" fill-rule="nonzero"/><g clip-path="url(#7c1556efd6)"><path fill="#f4f6fc" d="M 255.160156 105.980469 C 209.757812 105.980469 172.820312 142.894531 172.820312 188.261719 C 172.820312 233.660156 209.757812 270.597656 255.160156 270.597656 C 300.5625 270.597656 337.5 233.660156 337.5 188.261719 C 337.5 142.894531 300.5625 105.980469 255.160156 105.980469 Z M 255.160156 258.773438 C 216.277344 258.773438 184.644531 227.140625 184.644531 188.261719 C 184.644531 149.410156 216.277344 117.804688 255.160156 117.804688 C 294.042969 117.804688 325.675781 149.410156 325.675781 188.261719 C 325.675781 227.140625 294.042969 258.773438 255.160156 258.773438 Z M 255.160156 258.773438 " fill-opacity="1" fill-rule="nonzero"/></g><path fill="#f4f6fc" d="M 247.8125 283.070312 C 245.167969 280.675781 241.082031 281.074219 238.882812 283.882812 C 238.71875 284.089844 238.554688 284.300781 238.386719 284.507812 C 227.746094 297.941406 212.503906 306.394531 195.523438 308.320312 C 179.558594 310.113281 163.835938 305.886719 150.871094 296.511719 L 155.351562 290.84375 C 157.4375 288.230469 155.640625 284.292969 152.324219 284.164062 L 129.414062 283.09375 C 126.667969 282.96875 124.582031 285.621094 125.332031 288.285156 L 131.410156 310.507812 C 132.320312 313.777344 136.480469 314.609375 138.5625 312 L 143.289062 306.078125 C 158.835938 317.449219 177.671875 322.601562 196.871094 320.433594 C 217.152344 318.179688 235.277344 308.101562 247.953125 292.089844 C 248.160156 291.835938 248.363281 291.578125 248.5625 291.316406 C 250.5 288.796875 250.167969 285.203125 247.8125 283.070312 Z M 247.8125 283.070312 " fill-opacity="1" fill-rule="nonzero"/><path fill="#f4f6fc" d="M 127.1875 91.929688 C 129.832031 94.324219 133.917969 93.925781 136.117188 91.117188 C 136.28125 90.910156 136.445312 90.699219 136.613281 90.492188 C 147.253906 77.058594 162.496094 68.605469 179.476562 66.679688 C 195.441406 64.886719 211.164062 69.113281 224.128906 78.488281 L 219.648438 84.15625 C 217.5625 86.769531 219.359375 90.707031 222.675781 90.835938 L 245.585938 91.90625 C 248.332031 92.03125 250.417969 89.378906 249.667969 86.714844 L 243.589844 64.492188 C 242.679688 61.222656 238.519531 60.390625 236.4375 63 L 231.710938 68.921875 C 216.164062 57.550781 197.328125 52.398438 178.128906 54.566406 C 157.847656 56.820312 139.722656 66.898438 127.046875 82.910156 C 126.839844 83.164062 126.636719 83.421875 126.4375 83.683594 C 124.5 86.203125 124.832031 89.796875 127.1875 91.929688 Z M 127.1875 91.929688 " fill-opacity="1" fill-rule="nonzero"/></svg>